<svg viewBox="0 -96 511.99996 511" xmlns="http://www.w3.org/2000/svg"><path d="m215.914062 127.742188h21.933594l-11.21875 11.21875c-2.734375 2.734374-2.914062 7.253906-.398437 10.195312 2.808593 3.28125 7.972656 3.488281 11.027343.433594l11.21875-11.21875v21.933594c0 4.152343 3.363282 7.515624 7.511719 7.515624 4.152344 0 7.515625-3.363281 7.515625-7.515624v-21.933594l11.21875 11.21875c3.054688 3.054687 8.21875 2.851562 11.027344-.429688 2.519531-2.941406 2.335938-7.460937-.402344-10.199218l-11.214844-11.214844h21.933594c4.148438 0 7.515625-3.363282 7.515625-7.515625 0-4.152344-3.367187-7.515625-7.515625-7.515625h-21.933594l11.214844-11.214844c2.9375-2.9375 2.9375-7.695312 0-10.628906-2.933594-2.933594-7.691406-2.933594-10.625 0l-11.21875 11.214844v-21.933594c0-4.152344-3.363281-7.515625-7.515625-7.515625-4.148437 0-7.511719 3.363281-7.511719 7.515625v21.933594l-11.21875-11.21875c-2.933593-2.933594-7.695312-2.933594-10.628906 0-2.933594 2.9375-2.933594 7.695312 0 10.628906l11.21875 11.21875h-21.933594c-4.152343 0-7.515624 3.363281-7.515624 7.511718 0 4.152344 3.363281 7.515626 7.515624 7.515626zm0 0"/><path d="m344.160156 127.742188h21.933594l-11.21875 11.21875c-2.734375 2.734374-2.917969 7.253906-.398438 10.195312 2.808594 3.28125 7.96875 3.488281 11.027344.433594l11.21875-11.21875v21.933594c0 4.152343 3.363282 7.515624 7.511719 7.515624 4.152344 0 7.515625-3.363281 7.515625-7.515624v-21.933594l11.21875 11.21875c3.054688 3.054687 8.214844 2.851562 11.027344-.429688 2.515625-2.941406 2.335937-7.460937-.402344-10.199218l-11.214844-11.214844h21.933594c4.148438 0 7.515625-3.363282 7.515625-7.515625 0-4.152344-3.367187-7.515625-7.515625-7.515625h-21.933594l11.214844-11.214844c2.933594-2.9375 2.933594-7.695312 0-10.628906s-7.691406-2.933594-10.625 0l-11.21875 11.214844v-21.933594c0-4.152344-3.363281-7.515625-7.515625-7.515625-4.148437 0-7.511719 3.363281-7.511719 7.515625v21.933594l-11.21875-11.21875c-2.9375-2.933594-7.695312-2.933594-10.628906 0-2.933594 2.9375-2.933594 7.695312 0 10.628906l11.21875 11.21875h-21.933594c-4.152344 0-7.515625 3.363281-7.515625 7.511718 0 4.152344 3.363281 7.515626 7.515625 7.515626zm0 0"/><path d="m98.386719 101.496094 11.214843 11.21875h-21.933593c-4.148438 0-7.515625 3.363281-7.515625 7.515625 0 4.148437 3.367187 7.511719 7.515625 7.511719h21.933593l-11.214843 11.21875c-2.738281 2.734374-2.917969 7.253906-.402344 10.195312 2.8125 3.28125 7.972656 3.488281 11.027344.433594l11.21875-11.21875v21.933594c0 4.152343 3.363281 7.515624 7.515625 7.515624 4.148437 0 7.511718-3.363281 7.511718-7.515624v-21.933594l11.21875 11.21875c3.058594 3.054687 8.21875 2.851562 11.027344-.429688 2.519532-2.941406 2.335938-7.460937-.398437-10.199218l-11.21875-11.214844h21.933593c4.152344 0 7.515626-3.363282 7.515626-7.515625 0-4.152344-3.363282-7.515625-7.515626-7.515625h-21.933593l11.21875-11.214844c2.933593-2.9375 2.933593-7.695312 0-10.628906-2.9375-2.933594-7.695313-2.933594-10.628907 0l-11.21875 11.214844v-21.933594c0-4.152344-3.363281-7.515625-7.511718-7.515625-4.152344 0-7.515625 3.363281-7.515625 7.515625v21.933594l-11.21875-11.21875c-2.933594-2.933594-7.691407-2.933594-10.625 0-2.9375 2.9375-2.9375 7.695312 0 10.628906zm0 0"/><path d="m507.445312 272.3125-19.414062-32.355469h16.433594c4.152344 0 7.515625-3.363281 7.515625-7.511719v-224.429687c0-4.152344-3.363281-7.515625-7.515625-7.515625h-496.949219c-4.152344 0-7.515625 3.363281-7.515625 7.515625v224.429687c0 4.148438 3.363281 7.511719 7.515625 7.511719h357.789063l-19.414063 32.355469c-5.925781 9.878906-6.078125 21.761719-.398437 31.789062 5.675781 10.027344 15.941406 16.011719 27.460937 16.011719h107.429687c11.523438 0 21.789063-5.988281 27.464844-16.011719 5.675782-10.027343 5.523438-21.910156-.402344-31.789062zm-492.417968-47.382812v-209.402344h481.925781v209.402344h-17.9375l-10.21875-17.03125h3.609375c4.148438 0 7.511719-3.363282 7.511719-7.515626v-160.308593c0-4.148438-3.363281-7.511719-7.511719-7.511719h-340.152344c-4.152344 0-7.515625 3.363281-7.515625 7.511719 0 4.152343 3.363281 7.515625 7.515625 7.515625h332.636719v145.277344h-5.113281l-6.046875-10.078126c-5.757813-9.59375-15.875-15.324218-27.0625-15.324218s-21.304688 5.730468-27.0625 15.324218l-6.046875 10.078126h-346.46875v-145.277344h48.59375c4.148437 0 7.515625-3.363282 7.515625-7.515625 0-4.148438-3.367188-7.511719-7.515625-7.511719h-56.109375c-4.148438 0-7.511719 3.363281-7.511719 7.511719v160.308593c0 4.152344 3.363281 7.515626 7.511719 7.515626h344.96875l-10.222657 17.03125zm479.742187 71.765624c-2.976562 5.253907-8.351562 8.386719-14.386719 8.386719h-107.429687c-6.035156 0-11.414063-3.132812-14.386719-8.386719-2.972656-5.25-2.894531-11.472656.210938-16.648437l53.714844-89.523437c3.015624-5.027344 8.3125-8.027344 14.175781-8.027344 5.859375 0 11.160156 3 14.175781 8.027344l53.714844 89.523437c3.105468 5.175781 3.183594 11.398437.210937 16.648437zm0 0"/><path d="m426.667969 200.882812c-4.148438 0-7.515625 3.363282-7.515625 7.515626v48.089843c0 4.152344 3.367187 7.515625 7.515625 7.515625 4.152343 0 7.515625-3.363281 7.515625-7.515625v-48.089843c0-4.152344-3.363282-7.515626-7.515625-7.515626zm0 0"/><path d="m434.183594 280.535156c0 4.152344-3.363282 7.515625-7.515625 7.515625-4.148438 0-7.515625-3.363281-7.515625-7.515625 0-4.148437 3.367187-7.511718 7.515625-7.511718 4.152343 0 7.515625 3.363281 7.515625 7.511718zm0 0"/></svg>